<svg height="20" width="60" viewBox="0 0 174 37" fill="none" xmlns="http://www.w3.org/2000/svg">
<path d="M8.05115 36H0.142059L12.1932 1.09091H21.7046L33.7387 36H25.8296L17.0852 9.06818H16.8125L8.05115 36ZM7.55683 22.2784H26.2387V28.0398H7.55683V22.2784Z" fill="#007AFF"/>
<path d="M44.553 36.4261C42.5643 36.4261 40.7632 35.9148 39.1496 34.892C37.5473 33.858 36.2746 32.3409 35.3314 30.3409C34.3996 28.3295 33.9337 25.8636 33.9337 22.9432C33.9337 19.9432 34.4166 17.4489 35.3825 15.4602C36.3484 13.4602 37.6325 11.9659 39.2348 10.9773C40.8484 9.97727 42.6155 9.47727 44.5359 9.47727C46.0018 9.47727 47.2234 9.72727 48.2007 10.2273C49.1893 10.7159 49.9848 11.3295 50.5871 12.0682C51.2007 12.7955 51.6666 13.5114 51.9848 14.2159H52.2064V1.09091H59.4507V36H52.2916V31.8068H51.9848C51.6439 32.5341 51.1609 33.2557 50.5359 33.9716C49.9223 34.6761 49.1212 35.2614 48.1325 35.7273C47.1552 36.1932 45.9621 36.4261 44.553 36.4261ZM46.8541 30.6477C48.0246 30.6477 49.0132 30.3295 49.82 29.6932C50.6382 29.0455 51.2632 28.142 51.695 26.983C52.1382 25.8239 52.3598 24.4659 52.3598 22.9091C52.3598 21.3523 52.1439 20 51.7121 18.8523C51.2802 17.7045 50.6552 16.8182 49.8371 16.1932C49.0189 15.5682 48.0246 15.2557 46.8541 15.2557C45.6609 15.2557 44.6552 15.5795 43.8371 16.2273C43.0189 16.875 42.3996 17.7727 41.9791 18.9205C41.5586 20.0682 41.3484 21.3977 41.3484 22.9091C41.3484 24.4318 41.5586 25.7784 41.9791 26.9489C42.4109 28.108 43.0302 29.017 43.8371 29.6761C44.6552 30.3239 45.6609 30.6477 46.8541 30.6477Z" fill="#007AFF"/>
<path d="M73.3886 36.4261C71.4 36.4261 69.5988 35.9148 67.9852 34.892C66.3829 33.858 65.1102 32.3409 64.167 30.3409C63.2352 28.3295 62.7693 25.8636 62.7693 22.9432C62.7693 19.9432 63.2522 17.4489 64.2181 15.4602C65.184 13.4602 66.4681 11.9659 68.0704 10.9773C69.684 9.97727 71.4511 9.47727 73.3715 9.47727C74.8375 9.47727 76.0591 9.72727 77.0363 10.2273C78.025 10.7159 78.8204 11.3295 79.4227 12.0682C80.0363 12.7955 80.5022 13.5114 80.8204 14.2159H81.042V1.09091H88.2863V36H81.1272V31.8068H80.8204C80.4795 32.5341 79.9965 33.2557 79.3715 33.9716C78.7579 34.6761 77.9568 35.2614 76.9681 35.7273C75.9909 36.1932 74.7977 36.4261 73.3886 36.4261ZM75.6897 30.6477C76.8602 30.6477 77.8488 30.3295 78.6556 29.6932C79.4738 29.0455 80.0988 28.142 80.5306 26.983C80.9738 25.8239 81.1954 24.4659 81.1954 22.9091C81.1954 21.3523 80.9795 20 80.5477 18.8523C80.1159 17.7045 79.4909 16.8182 78.6727 16.1932C77.8545 15.5682 76.8602 15.2557 75.6897 15.2557C74.4965 15.2557 73.4909 15.5795 72.6727 16.2273C71.8545 16.875 71.2352 17.7727 70.8147 18.9205C70.3943 20.0682 70.184 21.3977 70.184 22.9091C70.184 24.4318 70.3943 25.7784 70.8147 26.9489C71.2465 28.108 71.8659 29.017 72.6727 29.6761C73.4909 30.3239 74.4965 30.6477 75.6897 30.6477Z" fill="#007AFF"/>
<path d="M108.889 18.7841V24.5455H92.9685V18.7841H108.889Z" fill="#007AFF"/>
<path d="M145.612 18.5455C145.612 22.3523 144.891 25.5909 143.448 28.2614C142.016 30.9318 140.061 32.9716 137.584 34.3807C135.118 35.7784 132.345 36.4773 129.266 36.4773C126.164 36.4773 123.379 35.7727 120.914 34.3636C118.448 32.9545 116.499 30.9148 115.067 28.2443C113.635 25.5739 112.919 22.3409 112.919 18.5455C112.919 14.7386 113.635 11.5 115.067 8.82954C116.499 6.15909 118.448 4.125 120.914 2.72727C123.379 1.31818 126.164 0.613632 129.266 0.613632C132.345 0.613632 135.118 1.31818 137.584 2.72727C140.061 4.125 142.016 6.15909 143.448 8.82954C144.891 11.5 145.612 14.7386 145.612 18.5455ZM138.129 18.5455C138.129 16.0795 137.76 14 137.021 12.3068C136.294 10.6136 135.266 9.32954 133.936 8.45454C132.607 7.57954 131.05 7.14204 129.266 7.14204C127.482 7.14204 125.925 7.57954 124.595 8.45454C123.266 9.32954 122.232 10.6136 121.493 12.3068C120.766 14 120.402 16.0795 120.402 18.5455C120.402 21.0114 120.766 23.0909 121.493 24.7841C122.232 26.4773 123.266 27.7614 124.595 28.6364C125.925 29.5114 127.482 29.9489 129.266 29.9489C131.05 29.9489 132.607 29.5114 133.936 28.6364C135.266 27.7614 136.294 26.4773 137.021 24.7841C137.76 23.0909 138.129 21.0114 138.129 18.5455Z" fill="#007AFF"/>
<path d="M156.525 20.8636V36H149.263V9.81818H156.184V14.4375H156.491C157.07 12.9148 158.042 11.7102 159.405 10.8239C160.769 9.92613 162.422 9.47727 164.366 9.47727C166.184 9.47727 167.769 9.875 169.121 10.6705C170.474 11.4659 171.525 12.6023 172.275 14.0795C173.025 15.5455 173.4 17.2955 173.4 19.3295V36H166.138V20.625C166.15 19.0227 165.741 17.7727 164.911 16.875C164.082 15.9659 162.94 15.5114 161.485 15.5114C160.508 15.5114 159.644 15.7216 158.894 16.142C158.155 16.5625 157.576 17.1761 157.155 17.983C156.746 18.7784 156.536 19.7386 156.525 20.8636Z" fill="#007AFF"/>
</svg>
