<svg width="16" height="16" viewBox="0 0 16 16" fill="none" xmlns="http://www.w3.org/2000/svg">
<path d="M6.19194 0.519779L6.50097 0.5H9.4096C12.6815 0.5 15.5 3.76989 15.5 8C15.5 12.23 12.6816 15.5 9.408 15.5H6.50094L6.19194 15.4802C3.11147 15.2831 0.5 12.0965 0.5 8C0.5 3.90349 3.11147 0.71694 6.19194 0.519779Z" fill="#0F1A1C" stroke="#0F1A1C"/>
<path fill-rule="evenodd" clip-rule="evenodd" d="M12 8C12 11.866 9.53757 15 6.5 15C3.46243 15 1 11.866 1 8C1 4.13401 3.46243 1 6.5 1C9.53757 1 12 4.13401 12 8ZM12.1785 11.897C11.5976 13.112 10.7343 14.1704 9.66094 14.9836C12.6265 14.8172 15.0001 11.7532 15.0001 7.99962C15.0001 4.24602 12.6265 1.18203 9.66094 1.01562C10.7343 1.8289 11.5976 2.88723 12.1785 4.10221C12.7594 5.31719 13.0411 6.65354 13.0001 7.99962C13.0411 9.34571 12.7594 10.6821 12.1785 11.897Z" fill="#FADB61"/>
<path d="M9.5 8C9.5 9.29071 9.13298 10.4378 8.56526 11.2488C7.99643 12.0614 7.25856 12.5 6.5 12.5C5.74144 12.5 5.00357 12.0614 4.43474 11.2488C3.86702 10.4378 3.5 9.29071 3.5 8C3.5 6.70929 3.86702 5.56223 4.43474 4.7512C5.00357 3.93859 5.74144 3.5 6.5 3.5C7.25856 3.5 7.99643 3.93859 8.56526 4.7512C9.13298 5.56223 9.5 6.70929 9.5 8Z" fill="#FADB61" stroke="#0F1A1C"/>
<path fill-rule="evenodd" clip-rule="evenodd" d="M14.5 4H11.5V3H14.5V4Z" fill="#0F1A1C"/>
<path fill-rule="evenodd" clip-rule="evenodd" d="M15.5 8.5H12.5V7.5H15.5V8.5Z" fill="#0F1A1C"/>
<path fill-rule="evenodd" clip-rule="evenodd" d="M14.5 13H11.5V12H14.5V13Z" fill="#0F1A1C"/>
</svg>
